<svg xmlns="http://www.w3.org/2000/svg" xmlns:xlink="http://www.w3.org/1999/xlink" width="500" zoomAndPan="magnify" viewBox="0 0 375 374.999991" height="500" preserveAspectRatio="xMidYMid meet" version="1.0"><defs><clipPath id="id1"><path d="M 139 112.5 L 233 112.5 L 233 228 L 139 228 Z M 139 112.5 " clip-rule="nonzero"/></clipPath><clipPath id="id2"><path d="M 166 239 L 190 239 L 190 262.5 L 166 262.5 Z M 166 239 " clip-rule="nonzero"/></clipPath></defs><g clip-path="url(#id1)"><path fill="rgb(9.01947%, 9.799194%, 13.729858%)" d="M 205.789062 115.742188 C 199.671875 113.625 193.378906 112.570312 186.910156 112.574219 C 170.742188 112.574219 156.339844 119.257812 147.417969 130.914062 C 145.851562 132.917969 144.5 135.058594 143.363281 137.335938 C 142.226562 139.609375 141.328125 141.976562 140.664062 144.433594 C 140.003906 146.886719 139.589844 149.382812 139.429688 151.921875 C 139.265625 154.460938 139.359375 156.988281 139.703125 159.507812 C 140.050781 161.964844 140.644531 164.367188 141.472656 166.707031 C 142.304688 169.046875 143.359375 171.28125 144.636719 173.414062 C 145.917969 175.542969 147.394531 177.527344 149.070312 179.359375 C 150.746094 181.195312 152.589844 182.847656 154.597656 184.3125 C 155.910156 185.347656 157.398438 185.878906 159.070312 185.90625 C 159.898438 185.859375 160.699219 185.6875 161.46875 185.390625 C 162.242188 185.09375 162.953125 184.6875 163.597656 184.167969 C 164.242188 183.648438 164.789062 183.042969 165.246094 182.351562 C 165.699219 181.660156 166.035156 180.917969 166.253906 180.121094 C 166.570312 179.253906 166.738281 178.359375 166.761719 177.433594 C 166.785156 176.511719 166.660156 175.609375 166.390625 174.726562 C 166.117188 173.84375 165.714844 173.027344 165.175781 172.273438 C 164.640625 171.523438 164 170.875 163.25 170.332031 C 161.992188 169.445312 160.871094 168.414062 159.878906 167.242188 C 158.886719 166.066406 158.0625 164.785156 157.402344 163.398438 C 156.738281 162.011719 156.265625 160.5625 155.976562 159.054688 C 155.691406 157.546875 155.597656 156.023438 155.703125 154.492188 C 155.878906 152.367188 156.304688 150.292969 156.972656 148.269531 C 157.636719 146.246094 158.53125 144.328125 159.65625 142.511719 C 160.777344 140.699219 162.09375 139.042969 163.605469 137.539062 C 165.121094 136.035156 166.789062 134.726562 168.613281 133.617188 C 171.539062 132.007812 174.621094 130.804688 177.863281 130.003906 C 181.105469 129.203125 184.394531 128.832031 187.734375 128.894531 C 199.652344 128.894531 209.285156 133.4375 213.507812 141.050781 C 221.773438 155.964844 209.582031 172.167969 197.902344 183.136719 C 195.664062 185.242188 193.019531 187.367188 190.222656 189.617188 C 179.679688 198.09375 167.730469 205.9375 169.90625 220.195312 C 169.945312 220.683594 170.03125 221.167969 170.15625 221.640625 C 170.285156 222.117188 170.453125 222.574219 170.664062 223.019531 C 170.875 223.464844 171.125 223.886719 171.414062 224.285156 C 171.699219 224.6875 172.019531 225.054688 172.375 225.398438 C 172.730469 225.738281 173.113281 226.046875 173.523438 226.320312 C 173.933594 226.589844 174.363281 226.824219 174.816406 227.019531 C 175.269531 227.214844 175.734375 227.367188 176.214844 227.476562 C 176.695312 227.589844 177.179688 227.65625 177.671875 227.675781 C 181.671875 227.675781 185.957031 224.238281 185.910156 216.550781 C 185.863281 209.878906 204.0625 200.28125 212.570312 191.851562 C 221.699219 182.804688 227.472656 173.839844 230.390625 164.59375 C 237.042969 143.53125 226.695312 122.984375 205.789062 115.742188 Z M 205.789062 115.742188 " fill-opacity="1" fill-rule="nonzero"/></g><g clip-path="url(#id2)"><path fill="rgb(9.01947%, 9.799194%, 13.729858%)" d="M 189.777344 250.808594 C 189.777344 251.574219 189.703125 252.335938 189.550781 253.089844 C 189.402344 253.84375 189.179688 254.574219 188.882812 255.285156 C 188.589844 255.992188 188.230469 256.667969 187.800781 257.304688 C 187.375 257.945312 186.886719 258.535156 186.34375 259.078125 C 185.800781 259.621094 185.207031 260.105469 184.570312 260.53125 C 183.929688 260.960938 183.253906 261.320312 182.542969 261.613281 C 181.832031 261.90625 181.097656 262.128906 180.34375 262.277344 C 179.589844 262.429688 178.828125 262.503906 178.058594 262.503906 C 177.289062 262.503906 176.527344 262.429688 175.773438 262.277344 C 175.019531 262.128906 174.285156 261.90625 173.574219 261.613281 C 172.863281 261.320312 172.1875 260.960938 171.546875 260.53125 C 170.910156 260.105469 170.316406 259.621094 169.773438 259.078125 C 169.230469 258.535156 168.742188 257.945312 168.316406 257.304688 C 167.886719 256.667969 167.527344 255.992188 167.234375 255.285156 C 166.9375 254.574219 166.714844 253.84375 166.566406 253.089844 C 166.414062 252.335938 166.339844 251.574219 166.339844 250.808594 C 166.339844 250.039062 166.414062 249.28125 166.566406 248.527344 C 166.714844 247.773438 166.9375 247.042969 167.234375 246.332031 C 167.527344 245.621094 167.886719 244.949219 168.316406 244.308594 C 168.742188 243.671875 169.230469 243.082031 169.773438 242.539062 C 170.316406 241.996094 170.910156 241.511719 171.546875 241.082031 C 172.1875 240.65625 172.863281 240.296875 173.574219 240.003906 C 174.285156 239.707031 175.019531 239.488281 175.773438 239.335938 C 176.527344 239.1875 177.289062 239.113281 178.058594 239.113281 C 178.828125 239.113281 179.589844 239.1875 180.34375 239.335938 C 181.097656 239.488281 181.832031 239.707031 182.542969 240.003906 C 183.253906 240.296875 183.929688 240.65625 184.570312 241.082031 C 185.207031 241.511719 185.800781 241.996094 186.34375 242.539062 C 186.886719 243.082031 187.375 243.671875 187.800781 244.308594 C 188.230469 244.949219 188.589844 245.621094 188.882812 246.332031 C 189.179688 247.042969 189.402344 247.773438 189.550781 248.527344 C 189.703125 249.28125 189.777344 250.039062 189.777344 250.808594 Z M 189.777344 250.808594 " fill-opacity="1" fill-rule="nonzero"/></g></svg>