<svg xmlns="http://www.w3.org/2000/svg" xmlns:xlink="http://www.w3.org/1999/xlink" width="500" zoomAndPan="magnify" viewBox="0 0 375 374.999991" height="500" preserveAspectRatio="xMidYMid meet" version="1.0"><defs><clipPath id="id1"><path d="M 112.5 112.5 L 262.5 112.5 L 262.5 262.5 L 112.5 262.5 Z M 112.5 112.5 " clip-rule="nonzero"/></clipPath></defs><g clip-path="url(#id1)"><path fill="rgb(100%, 83.918762%, 0%)" d="M 112.5 112.5 L 262.5 112.5 L 262.5 262.5 L 112.5 262.5 Z M 112.5 112.5 " fill-opacity="1" fill-rule="nonzero"/></g><path fill="rgb(0%, 0%, 0.389099%)" d="M 210.574219 224.777344 C 213.457031 229.460938 216.589844 233.949219 223.230469 233.949219 C 228.804688 233.949219 231.730469 231.179688 231.730469 227.347656 C 231.730469 222.757812 228.703125 221.128906 222.570312 218.457031 L 219.207031 217.023438 C 209.503906 212.910156 203.050781 207.75 203.050781 196.855469 C 203.050781 186.8125 210.738281 179.171875 222.75 179.171875 C 231.304688 179.171875 237.449219 182.132812 241.882812 189.890625 L 231.410156 196.585938 C 229.105469 192.472656 226.613281 190.851562 222.75 190.851562 C 218.808594 190.851562 216.3125 193.335938 216.3125 196.585938 C 216.3125 200.605469 218.8125 202.230469 224.582031 204.714844 L 227.945312 206.148438 C 239.382812 211.019531 245.832031 215.996094 245.832031 227.179688 C 245.832031 239.230469 236.316406 245.832031 223.542969 245.832031 C 211.046875 245.832031 203.949219 239.5625 200 231.800781 Z M 162.300781 225.121094 C 164.410156 228.894531 167.613281 231.800781 172.222656 231.800781 C 176.628906 231.800781 179.167969 230.058594 179.167969 223.289062 L 179.167969 179.167969 L 193.054688 179.167969 L 193.054688 225.421875 C 193.054688 239.449219 184.917969 245.832031 173.035156 245.832031 C 162.296875 245.832031 154.546875 238.558594 151.386719 231.800781 Z M 162.300781 225.121094 " fill-opacity="1" fill-rule="nonzero"/></svg>