<svg xmlns="http://www.w3.org/2000/svg" xmlns:xlink="http://www.w3.org/1999/xlink" width="500" zoomAndPan="magnify" viewBox="0 0 375 374.999991" height="500" preserveAspectRatio="xMidYMid meet" version="1.0"><defs><clipPath id="id1"><path d="M 112.5 121 L 262.5 121 L 262.5 253 L 112.5 253 Z M 112.5 121 " clip-rule="nonzero"/></clipPath></defs><path fill="rgb(32.548523%, 75.689697%, 87.059021%)" d="M 200.917969 187.089844 C 200.917969 187.96875 200.832031 188.839844 200.660156 189.703125 C 200.488281 190.566406 200.234375 191.402344 199.898438 192.214844 C 199.558594 193.027344 199.148438 193.800781 198.65625 194.53125 C 198.167969 195.265625 197.613281 195.941406 196.988281 196.5625 C 196.367188 197.1875 195.6875 197.742188 194.953125 198.230469 C 194.222656 198.71875 193.449219 199.132812 192.636719 199.46875 C 191.820312 199.804688 190.980469 200.058594 190.117188 200.230469 C 189.253906 200.402344 188.382812 200.488281 187.5 200.488281 C 186.617188 200.488281 185.746094 200.402344 184.882812 200.230469 C 184.019531 200.058594 183.179688 199.804688 182.363281 199.46875 C 181.550781 199.132812 180.777344 198.71875 180.046875 198.230469 C 179.3125 197.742188 178.632812 197.1875 178.011719 196.5625 C 177.386719 195.941406 176.832031 195.265625 176.34375 194.53125 C 175.851562 193.800781 175.441406 193.027344 175.101562 192.214844 C 174.765625 191.402344 174.511719 190.566406 174.339844 189.703125 C 174.167969 188.839844 174.082031 187.96875 174.082031 187.089844 C 174.082031 186.207031 174.167969 185.335938 174.339844 184.472656 C 174.511719 183.609375 174.765625 182.773438 175.101562 181.960938 C 175.441406 181.148438 175.851562 180.375 176.34375 179.644531 C 176.832031 178.910156 177.386719 178.234375 178.011719 177.613281 C 178.632812 176.988281 179.3125 176.433594 180.046875 175.945312 C 180.777344 175.457031 181.550781 175.042969 182.363281 174.707031 C 183.179688 174.371094 184.019531 174.117188 184.882812 173.945312 C 185.746094 173.773438 186.617188 173.6875 187.5 173.6875 C 188.382812 173.6875 189.253906 173.773438 190.117188 173.945312 C 190.980469 174.117188 191.820312 174.371094 192.636719 174.707031 C 193.449219 175.042969 194.222656 175.457031 194.953125 175.945312 C 195.6875 176.433594 196.367188 176.988281 196.988281 177.613281 C 197.613281 178.234375 198.167969 178.910156 198.65625 179.644531 C 199.148438 180.375 199.558594 181.148438 199.898438 181.960938 C 200.234375 182.773438 200.488281 183.609375 200.660156 184.472656 C 200.832031 185.335938 200.917969 186.207031 200.917969 187.089844 Z M 200.917969 187.089844 " fill-opacity="1" fill-rule="nonzero"/><g clip-path="url(#id1)"><path fill="rgb(32.548523%, 75.689697%, 87.059021%)" d="M 140.710938 210.816406 C 142.03125 211.253906 143.351562 211.699219 144.699219 212.078125 C 144.261719 213.832031 143.882812 215.5625 143.523438 217.347656 C 140.449219 233.585938 142.851562 246.457031 150.523438 250.875 C 158.4375 255.4375 171.738281 250.757812 184.6875 239.433594 C 185.710938 238.53125 186.738281 237.59375 187.761719 236.59375 C 189.050781 237.855469 190.398438 239.054688 191.742188 240.222656 C 204.28125 250.988281 216.675781 255.34375 224.324219 250.933594 C 232.238281 246.371094 234.8125 232.53125 231.476562 215.679688 C 231.210938 214.394531 230.917969 213.078125 230.59375 211.730469 C 231.53125 211.46875 232.4375 211.171875 233.351562 210.878906 C 250.257812 205.292969 262.5 196.25 262.5 186.976562 C 262.5 178.113281 250.957031 169.511719 235.019531 164.039062 L 235.019531 164.03125 C 233.4375 163.507812 231.855469 163.007812 230.273438 162.539062 C 230.539062 161.460938 230.773438 160.375 231.007812 159.292969 C 234.613281 141.855469 232.238281 127.851562 224.238281 123.226562 C 216.53125 118.804688 203.960938 123.398438 191.25 134.460938 C 189.988281 135.539062 188.761719 136.683594 187.585938 137.824219 C 186.792969 137.0625 185.976562 136.300781 185.15625 135.570312 C 171.824219 123.75 158.46875 118.773438 150.46875 123.429688 C 142.792969 127.882812 140.507812 141.074219 143.730469 157.566406 C 144.054688 159.207031 144.40625 160.8125 144.8125 162.453125 C 142.9375 162.976562 141.09375 163.5625 139.363281 164.183594 C 123.71875 169.59375 112.5 178.136719 112.5 186.976562 C 112.5 196.105469 124.449219 205.257812 140.710938 210.816406 Z M 180.554688 234.652344 C 175.726562 239.074219 170.125 242.582031 164.03125 244.984375 C 160.78125 246.53125 157.03125 246.679688 153.6875 245.363281 C 149.03125 242.675781 147.09375 232.34375 149.730469 218.445312 C 150.054688 216.808594 150.40625 215.167969 150.8125 213.558594 C 157.375 214.960938 163.992188 215.929688 170.707031 216.421875 C 174.574219 221.898438 178.820312 227.132812 183.363281 232.046875 C 182.425781 232.949219 181.488281 233.832031 180.550781 234.648438 Z M 217.761719 179.714844 C 216.386719 177.140625 214.980469 174.566406 213.511719 172.050781 C 212.074219 169.566406 210.582031 167.109375 209.03125 164.679688 C 213.75 165.269531 218.261719 166.054688 222.480469 167.023438 C 221.132812 171.351562 219.550781 175.566406 217.761719 179.714844 Z M 217.820312 194.285156 C 219.695312 198.527344 221.335938 202.828125 222.769531 207.246094 C 218.226562 208.269531 213.632812 209.0625 209 209.589844 C 210.582031 207.128906 212.074219 204.613281 213.542969 202.097656 C 215.039062 199.519531 216.445312 196.917969 217.820312 194.285156 Z M 214.429688 187.007812 C 212.46875 191.046875 210.355469 195.019531 208.105469 198.941406 C 205.882812 202.828125 203.507812 206.605469 201.019531 210.351562 C 196.65625 210.675781 192.113281 210.816406 187.511719 210.816406 C 182.914062 210.816406 178.460938 210.675781 174.15625 210.40625 C 171.605469 206.691406 169.207031 202.886719 166.949219 198.996094 C 164.695312 195.109375 162.613281 191.15625 160.648438 187.117188 L 160.636719 187.117188 C 162.570312 183.082031 164.679688 179.128906 166.90625 175.242188 C 169.132812 171.351562 171.539062 167.578125 174.054688 163.863281 C 178.449219 163.539062 182.929688 163.363281 187.507812 163.363281 C 192.082031 163.363281 196.585938 163.539062 200.957031 163.863281 C 203.445312 167.550781 205.820312 171.320312 208.074219 175.183594 C 210.332031 179.050781 212.4375 183 214.429688 187.007812 Z M 161.449219 172.109375 C 160.011719 174.59375 158.605469 177.132812 157.289062 179.710938 C 155.445312 175.355469 153.886719 171.085938 152.601562 166.960938 C 156.820312 166.023438 161.300781 165.261719 165.957031 164.675781 C 164.414062 167.101562 162.886719 169.585938 161.449219 172.109375 Z M 157.292969 194.515625 C 158.644531 197.09375 160.019531 199.640625 161.480469 202.15625 C 162.976562 204.703125 164.5 207.246094 166.113281 209.730469 C 161.542969 209.234375 157 208.503906 152.519531 207.535156 C 153.804688 203.320312 155.417969 198.964844 157.292969 194.515625 Z M 187.738281 227.539062 C 184.75 224.324219 181.761719 220.761719 178.863281 216.921875 C 181.675781 217.039062 184.574219 217.097656 187.507812 217.097656 C 190.523438 217.097656 193.480469 217.039062 196.414062 216.890625 C 193.71875 220.605469 190.820312 224.148438 187.738281 227.539062 Z M 226.03125 236.328125 C 225.761719 239.890625 224.007812 243.222656 221.195312 245.476562 C 216.539062 248.167969 206.605469 244.660156 195.882812 235.472656 C 194.648438 234.417969 193.417969 233.273438 192.164062 232.109375 C 196.644531 227.164062 200.773438 221.929688 204.523438 216.429688 C 211.230469 215.875 217.914062 214.851562 224.507812 213.359375 C 224.800781 214.558594 225.0625 215.753906 225.300781 216.929688 C 226.738281 223.25 226.96875 229.828125 226.03125 236.328125 Z M 228.574219 168.570312 C 230.101562 169.007812 231.5625 169.472656 232.96875 169.941406 C 246.617188 174.625 256.199219 181.589844 256.199219 186.914062 C 256.199219 192.648438 245.976562 200.050781 231.355469 204.875 C 230.539062 205.136719 229.71875 205.402344 228.867188 205.636719 C 226.820312 199.257812 224.300781 193.03125 221.398438 186.96875 C 224.210938 181.003906 226.585938 174.855469 228.574219 168.570312 Z M 195.375 139.195312 C 206.28125 129.722656 216.445312 126.007812 221.074219 128.667969 C 226.023438 131.507812 227.929688 142.972656 224.824219 158.039062 C 224.617188 159.03125 224.414062 160 224.148438 160.96875 C 217.644531 159.507812 211.054688 158.453125 204.429688 157.867188 C 200.625 152.417969 196.460938 147.210938 191.949219 142.324219 C 193.09375 141.246094 194.207031 140.21875 195.375 139.195312 Z M 187.5625 146.804688 C 190.636719 150.136719 193.539062 153.644531 196.230469 157.273438 C 190.429688 157.011719 184.601562 157.011719 178.800781 157.273438 C 181.667969 153.503906 184.632812 149.996094 187.5625 146.804688 Z M 153.574219 128.875 C 158.5 126.007812 169.425781 130.101562 180.9375 140.28125 C 181.667969 140.925781 182.398438 141.632812 183.164062 142.332031 C 178.617188 147.210938 174.429688 152.417969 170.59375 157.859375 C 163.976562 158.445312 157.414062 159.46875 150.90625 160.90625 C 150.523438 159.414062 150.207031 157.890625 149.882812 156.367188 C 147.125 142.207031 148.945312 131.53125 153.574219 128.875 Z M 141.417969 170.117188 C 143.085938 169.53125 144.789062 169.007812 146.488281 168.507812 C 148.480469 174.855469 150.882812 181.089844 153.664062 187.113281 C 150.851562 193.230469 148.417969 199.546875 146.398438 205.980469 L 146.394531 205.988281 C 145.164062 205.636719 143.960938 205.257812 142.761719 204.84375 C 136.523438 202.886719 129.429688 199.78125 124.304688 195.71875 C 121.351562 193.671875 119.355469 190.515625 118.800781 186.96875 C 118.800781 181.613281 128.054688 174.765625 141.417969 170.117188 Z M 141.417969 170.117188 " fill-opacity="1" fill-rule="nonzero"/></g></svg>